<svg width="125" height="119" viewBox="0 0 125 119" fill="none" xmlns="http://www.w3.org/2000/svg">
<path d="M37.3079 97.8673C36.4097 97.2192 35.7403 96.3048 35.3955 95.2547C35.0506 94.2047 35.048 93.0729 35.388 92.0213L36.4863 87.4949C36.6824 86.6992 37.0443 85.9534 37.5483 85.306C38.0524 84.6586 38.6875 84.1239 39.4123 83.7367L43.0174 81.8493C45.2413 80.6977 47.0171 78.8414 48.0646 76.5731C49.112 74.3048 49.3716 71.7537 48.8023 69.3222L48.752 69.0967C48.0845 66.3738 46.4214 63.9969 44.0879 62.4307C41.7543 60.8646 38.9182 60.2219 36.1342 60.6283L32.1016 61.2046C31.2817 61.3218 30.4462 61.2649 29.65 61.0374C28.8538 60.81 28.1149 60.4173 27.482 59.8851L23.9189 56.8702C23.0345 56.2111 22.3778 55.2943 22.0399 54.2468C21.7019 53.1994 21.6993 52.0732 22.0325 51.0242C22.7911 48.7002 22.7694 46.1933 21.9706 43.8827C21.1718 41.5721 19.6394 39.5834 17.6051 38.2175C15.5708 36.8516 13.1453 36.1827 10.6955 36.3119C8.24564 36.4412 5.90468 37.3616 4.02666 38.934C2.14865 40.5064 0.835723 42.6452 0.286466 45.027C-0.262791 47.4087 -0.0185053 49.9039 0.982375 52.135C1.98325 54.3662 3.68629 56.212 5.8339 57.3933C7.98152 58.5746 10.4569 59.0271 12.8857 58.6825C13.2797 58.624 13.6654 58.5405 14.051 58.4486L15.099 58.2482C15.9694 58.0768 16.8675 58.1043 17.7257 58.3285C18.5839 58.5527 19.3799 58.9678 20.0539 59.5427L24.8998 63.7184C25.6404 64.3644 26.206 65.1857 26.5444 66.1066C26.8828 67.0275 26.9833 68.0184 26.8365 68.9881L26.7191 69.723L26.6185 70.3661V70.4246C26.461 71.765 26.5462 73.1227 26.87 74.4332C26.87 74.5084 26.87 74.5836 26.9287 74.6504V74.7339C27.3934 76.5112 28.292 78.1465 29.5445 79.4942C29.6954 79.6529 29.8463 79.8032 30.0056 79.9535L30.5338 80.4797C31.2311 81.1839 31.7376 82.0528 32.0059 83.0051C32.2742 83.9574 32.2956 84.962 32.068 85.9248L30.5924 92.1132C30.3896 92.9734 29.9917 93.7758 29.4293 94.4591C28.8669 95.1424 28.1549 95.6883 27.3479 96.0551L26.4424 96.4726C26.0728 96.6163 25.7117 96.7808 25.3609 96.9654C23.7117 97.8324 22.3055 99.0954 21.2696 100.64C19.5574 103.085 18.8906 106.108 19.4157 109.043C19.9409 111.978 21.615 114.585 24.0698 116.291C26.5246 117.996 29.559 118.66 32.5054 118.137C35.4519 117.614 38.0691 115.946 39.7812 113.501C40.7944 112.118 41.4743 110.52 41.7682 108.833C41.845 108.452 41.8982 108.067 41.9275 107.68L42.0448 106.695C41.9778 104.962 41.5166 103.267 40.6961 101.738C39.8755 100.209 38.717 98.8854 37.3079 97.8673Z" fill="#C8C9CA"/>
<path d="M123.531 44.0897C122.937 42.2765 121.89 40.6436 120.488 39.344C119.087 38.0445 117.377 37.1209 115.519 36.6601C113.661 36.1993 111.715 36.2163 109.866 36.7094C108.016 37.2026 106.323 38.1559 104.944 39.4797C104.65 39.7432 104.37 40.022 104.106 40.3148L103.427 41.0498C102.826 41.6981 102.085 42.2025 101.26 42.525C100.435 42.8476 99.548 42.9799 98.6646 42.9121L92.2929 42.3943C91.3023 42.3127 90.3487 41.9817 89.5216 41.4324C88.6945 40.8832 88.0211 40.1337 87.5644 39.2542L87.229 38.5944C87.1284 38.394 87.0362 38.2019 86.9272 38.0182V37.9597C86.2653 36.7797 85.3931 35.7298 84.3533 34.8614L84.1857 34.7277L84.1102 34.6609C82.6836 33.5017 80.9941 32.7076 79.1889 32.3476H79.1218L78.4762 32.239L77.7301 32.1805C76.7501 32.0208 75.827 31.6159 75.0469 31.0039C74.2668 30.3919 73.6554 29.5928 73.2698 28.6813L70.805 22.8353C70.4654 22.0187 70.3161 21.136 70.3684 20.2536C70.4206 19.3712 70.6731 18.5121 71.1068 17.7409L71.6014 16.9058C71.8138 16.5717 72.0067 16.2293 72.1799 15.8786C72.9391 14.3434 73.3322 12.6543 73.3285 10.9429C73.2484 8.01353 72.0238 5.23095 69.9155 3.18723C67.8072 1.14352 64.9814 0 62.0396 0C59.0978 0 56.272 1.14352 54.1637 3.18723C52.0554 5.23095 50.8308 8.01353 50.7507 10.9429C50.747 12.6543 51.1401 14.3434 51.8993 15.8786C52.0781 16.2293 52.271 16.5717 52.4778 16.9058L52.9724 17.7409C53.4061 18.5121 53.6586 19.3712 53.7108 20.2536C53.7631 21.136 53.6138 22.0187 53.2742 22.8353L50.8094 28.6813C50.4268 29.5886 49.8205 30.3849 49.0467 30.9966C48.2729 31.6083 47.3566 32.0155 46.3827 32.1805L45.6533 32.2975L44.9993 32.406H44.9406C43.6076 32.6675 42.3344 33.1714 41.1847 33.8926L41.017 34.0012C40.9833 34.0156 40.9522 34.0354 40.9248 34.0596C39.3698 35.0529 38.0877 36.4162 37.1939 38.0265V38.085C37.0933 38.2687 36.9927 38.4692 36.9005 38.6612C32.3229 48.4491 42.3416 53.8775 43.6076 54.2116C45.1539 54.677 46.7795 54.8223 48.3842 54.6384C49.989 54.4546 51.539 53.9455 52.9389 53.1426L53.1485 53.009C55.5373 51.5325 57.2852 49.2192 58.0485 46.5239C58.8118 43.8287 58.5353 40.9466 57.2734 38.4441L55.4457 34.7695C55.0802 34.0288 54.8763 33.2195 54.8474 32.3947C54.8185 31.5699 54.9653 30.7484 55.278 29.9841L57.0218 25.6748C57.3746 24.6332 58.0465 23.728 58.9429 23.0869C59.8393 22.4457 60.9151 22.1009 62.0186 22.1009C63.1222 22.1009 64.198 22.4457 65.0944 23.0869C65.9908 23.728 66.6627 24.6332 67.0154 25.6748L68.7928 29.9841C69.1069 30.7478 69.255 31.569 69.2276 32.3938C69.2001 33.2186 68.9977 34.0282 68.6335 34.7695L66.831 38.4107C65.7077 40.6508 65.3699 43.201 65.8713 45.6547C66.3728 48.1083 67.6846 50.324 69.5977 51.9484L69.7737 52.107C71.2389 53.3374 72.995 54.1749 74.8759 54.5402C76.7567 54.9056 78.7 54.7867 80.5219 54.1949C82.1926 53.6639 83.7127 52.7451 84.957 51.5141L87.883 48.6829C88.4727 48.0991 89.1811 47.6479 89.9606 47.3598C90.7401 47.0716 91.5726 46.9533 92.4019 47.0127L97.0633 47.3634C98.1662 47.3778 99.2374 47.7337 100.128 48.3816C101.019 49.0295 101.685 49.9375 102.035 50.9796C102.748 53.1677 104.55 57.3684 111.148 58.6295C113.045 58.8967 114.979 58.6789 116.768 57.9965C118.557 57.3141 120.142 56.1897 121.375 54.7289C122.607 53.2681 123.446 51.519 123.813 49.6461C124.18 47.7732 124.063 45.8381 123.473 44.0229L123.531 44.0897Z" fill="#EC1D35"/>
<path d="M82.7797 61.0571C81.2506 61.5819 79.8469 62.4159 78.6566 63.5067C77.4664 64.5975 76.5153 65.9216 75.863 67.3958C75.863 67.471 75.7959 67.5461 75.7708 67.6213C74.7202 70.2163 74.6774 73.1081 75.6508 75.7329C76.6242 78.3576 78.544 80.5272 81.0359 81.8187L84.6493 83.7061C85.3807 84.0924 86.0217 84.6285 86.5303 85.279C87.0389 85.9296 87.4036 86.68 87.6005 87.481L88.7071 92.0074C89.0455 93.0575 89.0424 94.1872 88.6983 95.2355C88.3541 96.2837 87.6865 97.1969 86.7907 97.8449C85.8948 98.493 84.8164 98.8426 83.7092 98.8442C82.6021 98.8457 81.5227 98.499 80.6251 97.8534L76.6427 95.4148C75.9366 94.9856 75.3296 94.4125 74.8615 93.7332C74.3933 93.0538 74.0747 92.2836 73.9263 91.473L73.2389 87.4726C72.8305 85.0034 71.6054 82.7409 69.7582 81.0446C67.9111 79.3484 65.5479 78.3157 63.044 78.1107H62.8009C59.9954 77.9084 57.2152 78.7571 55.0051 80.4904C52.7951 82.2238 51.3146 84.7169 50.8539 87.481C49.2609 97.0016 57.8544 100.1 61.1828 100.526H61.493C63.3322 100.631 65.169 100.284 66.8419 99.5154H66.9006L67.4875 99.2231L68.1498 98.889C69.037 98.4437 70.0232 98.23 71.0159 98.268C72.0086 98.306 72.9754 98.5944 73.8257 99.1062L79.2836 102.447C80.0418 102.905 80.6846 103.53 81.1627 104.274C81.6408 105.018 81.9416 105.862 82.0419 106.739L82.1593 107.725C82.1856 108.12 82.2332 108.513 82.3018 108.902C82.6298 110.785 83.4335 112.553 84.6374 114.04C85.8412 115.527 87.4054 116.684 89.1825 117.403C90.9597 118.121 92.8912 118.377 94.795 118.146C96.6987 117.914 98.5121 117.204 100.064 116.082C101.616 114.959 102.855 113.461 103.665 111.73C104.475 109.998 104.829 108.089 104.693 106.184C104.558 104.278 103.937 102.438 102.89 100.838C101.843 99.2369 100.404 97.9283 98.7091 97.035C98.357 96.8513 97.9965 96.6926 97.6276 96.5423L96.7221 96.1247C95.9161 95.7588 95.2047 95.2142 94.6423 94.5324C94.08 93.8506 93.6816 93.0498 93.4776 92.1912L92.002 85.9944C91.7744 85.0316 91.7958 84.0271 92.0641 83.0747C92.3325 82.1224 92.839 81.2535 93.5363 80.5493L94.0644 80.0232C94.2237 79.8728 94.3746 79.7225 94.5256 79.5638V79.5137C95.449 78.525 96.1822 77.3757 96.6886 76.123L96.7641 75.931V75.8391C97.43 74.129 97.666 72.2826 97.4515 70.4608V70.394C95.9592 59.5121 85.1943 60.1635 82.7797 61.0571Z" fill="#402FFF"/>
</svg>
